<svg t="1768137706431" class="icon" viewBox="0 0 1024 1024" version="1.1" xmlns="http://www.w3.org/2000/svg" p-id="3468" width="14" height="14"><path d="M1019.477447 713.998854a36.56657 36.56657 0 0 1-9.361042 45.927613l-5.484986 3.656657-475.365416 255.965993a36.56657 36.56657 0 0 1-27.936859 2.705926l-6.728249-2.779059-475.365416-255.965993a36.56657 36.56657 0 0 1 28.595058-66.989957l6.070051 2.632793L511.933449 945.611512l458.032861-246.531818a36.56657 36.56657 0 0 1 49.511137 14.846027z m0-219.399422a36.56657 36.56657 0 0 1-9.361042 45.927612l-5.484986 3.656657-475.365416 255.965993a36.56657 36.56657 0 0 1-27.936859 2.705927l-6.728249-2.77906-475.365416-255.965993a36.56657 36.56657 0 0 1 28.595058-66.989957l6.070051 2.632793L511.933449 726.212089l458.032861-246.531818a36.56657 36.56657 0 0 1 49.511137 14.846028zM494.600895 4.387988a36.56657 36.56657 0 0 1 34.665108 0l475.365416 255.965994a36.56657 36.56657 0 0 1 0 64.357164l-475.365416 255.965993a36.56657 36.56657 0 0 1-34.665108 0l-475.365416-255.965993a36.56657 36.56657 0 0 1 0-64.357164zM511.933449 78.106194L113.723497 292.45943 511.933449 506.885799l398.136819-214.426369L511.933449 78.106194z" fill="#1296db" p-id="3469"></path></svg>